<?xml version="1.0" standalone="no"?>
<!DOCTYPE svg PUBLIC "-//W3C//DTD SVG 20010904//EN"
 "http://www.w3.org/TR/2001/REC-SVG-20010904/DTD/svg10.dtd">
<svg version="1.0" xmlns="http://www.w3.org/2000/svg"
 width="1920.000000pt" height="1080.000000pt" viewBox="0 0 1920.000000 1080.000000"
 preserveAspectRatio="xMidYMid meet">

<g transform="translate(0.000000,1080.000000) scale(0.100000,-0.100000)"
fill="#000000" stroke="none">
<path d="M6040 7632 c-29 -10 5 -47 243 -270 37 -35 74 -73 82 -85 13 -19 15
-157 15 -1087 0 -1245 -8 -1546 -47 -1695 -34 -134 -73 -204 -163 -296 -80
-81 -124 -115 -264 -203 l-90 -56 620 0 c482 0 624 -3 635 -12 37 -31 103
-140 92 -152 -4 -3 -314 -6 -689 -6 -384 0 -685 -4 -688 -9 -3 -5 4 -20 15
-35 l20 -26 740 0 c817 0 770 -4 710 63 -16 17 -64 77 -107 132 -43 55 -103
129 -134 165 -119 135 -165 227 -183 360 -13 100 -21 1810 -8 1810 9 0 24 -36
55 -135 8 -27 42 -126 74 -220 33 -93 61 -177 64 -185 3 -8 24 -71 48 -140 23
-69 49 -145 56 -170 18 -61 123 -370 133 -395 13 -28 22 -55 31 -90 5 -16 43
-129 85 -250 42 -121 80 -233 85 -250 4 -16 24 -75 45 -130 20 -55 41 -116 45
-135 10 -43 52 -160 63 -177 10 -15 193 -18 202 -4 5 10 56 148 96 261 12 36
41 117 65 180 23 63 49 135 57 160 9 25 27 77 42 115 15 39 36 97 46 130 11
33 24 69 29 80 4 11 20 54 35 95 15 41 42 116 60 165 19 50 40 110 49 135 8
25 27 77 42 115 14 39 32 88 39 110 8 22 34 96 60 165 26 69 52 143 59 165 8
22 20 58 29 80 8 22 27 74 42 115 15 41 30 84 35 95 10 23 51 138 74 205 28
82 47 135 61 165 7 17 16 43 20 59 3 16 15 48 26 70 10 22 19 46 19 53 0 7 11
38 25 69 14 31 25 66 25 79 0 12 9 30 20 40 24 22 22 44 20 -205 -1 -200 0
-198 -76 -405 -18 -49 -49 -137 -69 -195 -20 -58 -45 -127 -55 -155 -11 -27
-29 -77 -40 -110 -12 -33 -40 -109 -62 -170 -57 -158 -126 -351 -148 -415 -10
-30 -35 -100 -55 -155 -20 -55 -54 -147 -75 -205 -21 -58 -59 -163 -85 -235
-26 -71 -51 -141 -55 -155 -9 -26 -68 -189 -90 -250 -7 -19 -24 -66 -38 -105
-13 -38 -28 -79 -33 -90 -4 -11 -20 -56 -35 -100 -49 -144 -36 -134 -172 -137
-111 -3 -117 -4 -114 -23 7 -45 6 -45 145 -45 l134 0 12 27 c7 15 24 62 38
103 14 41 31 89 38 105 8 17 30 77 50 135 20 58 40 114 45 125 5 11 20 52 33
90 14 39 35 97 47 130 12 33 35 96 51 140 15 44 40 112 54 150 15 39 36 97 47
130 12 33 25 69 29 80 24 56 53 136 70 190 11 33 23 69 28 80 5 11 14 34 19
50 20 59 64 180 72 200 5 11 20 54 35 95 15 41 46 127 70 190 24 63 57 156 73
205 17 50 40 112 51 138 12 27 21 57 21 66 0 10 9 26 20 36 19 17 20 17 20 -1
0 -10 0 -440 0 -954 l0 -935 -38 -35 c-52 -48 -88 -79 -224 -192 -65 -54 -118
-100 -118 -103 0 -3 289 -5 643 -5 l642 1 -167 164 -168 165 0 1487 0 1487
168 169 c208 210 194 195 190 208 -3 9 -650 13 -1390 9 -21 0 -2 -31 55 -92
34 -37 103 -110 152 -163 50 -53 94 -103 98 -111 9 -16 3 -33 -76 -254 -25
-69 -51 -141 -58 -160 -26 -75 -81 -226 -89 -245 -4 -11 -15 -42 -25 -70 -9
-27 -20 -59 -25 -70 -5 -11 -20 -51 -33 -90 -14 -38 -44 -122 -67 -185 -23
-63 -55 -153 -71 -200 -17 -47 -34 -94 -39 -105 -5 -11 -18 -47 -29 -80 -11
-33 -31 -89 -44 -125 -24 -63 -32 -84 -85 -235 -14 -38 -33 -89 -43 -112 -11
-24 -19 -51 -19 -60 0 -38 -13 -63 -31 -63 -11 0 -19 7 -19 17 0 14 -86 279
-109 338 -14 34 -53 148 -61 180 -5 17 -16 50 -26 75 -9 25 -20 59 -24 75 -9
33 -46 139 -60 170 -4 11 -11 29 -13 40 -6 22 -113 338 -126 370 -17 42 -44
122 -55 162 -7 23 -15 45 -19 49 -4 4 -7 16 -7 26 0 10 -5 26 -10 36 -6 9 -28
73 -50 142 -22 69 -45 134 -50 145 -16 34 -50 147 -50 166 0 19 6 24 178 145
178 124 166 113 146 135 -23 26 -34 24 -85 -15 -24 -18 -104 -77 -176 -131
-90 -66 -133 -103 -133 -116 0 -20 34 -126 95 -294 20 -55 38 -109 41 -120 3
-11 10 -29 15 -40 5 -11 31 -90 59 -175 28 -85 55 -164 60 -175 5 -11 14 -38
21 -60 6 -22 16 -51 21 -65 6 -14 18 -50 28 -80 11 -30 42 -120 70 -200 28
-80 55 -158 60 -175 5 -16 25 -75 45 -130 20 -55 41 -117 46 -138 5 -21 14
-45 19 -55 21 -37 140 -398 140 -423 0 -18 -12 -49 -76 -196 -7 -18 -17 -33
-22 -33 -4 0 -16 24 -27 53 -10 28 -21 57 -25 62 -4 6 -10 24 -13 40 -7 38
-102 313 -111 322 -3 3 -6 17 -6 29 0 13 -4 25 -9 28 -5 3 -11 18 -14 33 -4
25 -36 123 -58 178 -4 11 -15 45 -25 75 -9 30 -20 59 -25 64 -5 6 -9 20 -9 32
0 13 -11 49 -24 81 -13 32 -36 99 -51 148 -16 50 -31 95 -35 100 -3 6 -12 30
-19 55 -7 25 -17 54 -21 65 -8 18 -20 55 -77 230 -9 28 -19 55 -23 60 -4 6
-10 24 -13 40 -4 24 -102 312 -130 385 -3 8 -13 40 -22 70 -9 30 -21 64 -25
75 -16 37 -50 148 -50 164 0 9 86 94 190 190 105 95 189 178 187 184 -2 7
-228 11 -700 11 -383 1 -701 0 -707 -2z m634 -887 c21 -66 42 -129 47 -140 41
-99 39 -49 39 -1074 1 -1041 4 -1128 49 -1221 11 -24 21 -49 21 -56 0 -7 6
-19 14 -27 8 -7 28 -36 45 -63 16 -27 47 -63 68 -80 80 -67 96 -85 84 -97 -13
-13 -98 14 -143 45 -14 10 -29 18 -34 18 -19 0 -154 124 -154 142 0 5 -11 25
-23 46 -24 37 -30 55 -48 147 -38 191 -41 267 -46 1389 -2 605 -1 1111 2 1125
l6 24 17 -29 c9 -16 34 -83 56 -149z"/>
<path d="M10392 7632 c-7 -2 -12 -8 -12 -13 0 -5 80 -72 178 -149 97 -78 189
-152 205 -166 l27 -26 0 -603 c0 -687 11 -617 -95 -629 -82 -10 -159 -31 -225
-64 -79 -39 -177 -141 -222 -233 -62 -125 -59 -138 18 -83 59 42 176 99 236
115 75 19 239 32 265 20 20 -9 23 -18 23 -64 0 -60 -12 -77 -51 -77 -77 0
-299 -75 -386 -131 -26 -15 -31 -57 -9 -65 8 -3 40 8 72 24 106 53 293 108
344 101 l25 -4 3 -629 c2 -535 0 -633 -12 -651 -8 -12 -45 -44 -83 -70 -37
-27 -82 -60 -99 -74 -48 -40 -64 -52 -142 -109 -39 -30 -72 -58 -72 -63 0 -5
645 -9 1585 -9 872 0 1585 4 1585 8 0 5 -25 35 -56 67 -237 247 -341 420 -435
728 -33 105 -51 129 -64 86 -4 -12 -29 -56 -54 -98 -26 -42 -70 -114 -97 -160
-93 -158 -221 -273 -369 -329 -152 -57 -439 -95 -690 -90 l-170 3 0 695 0 695
295 5 c252 4 295 7 297 20 2 8 -9 24 -24 35 -26 18 -46 19 -313 20 -157 1
-295 -2 -307 -6 l-23 -8 -2 -728 -3 -728 -87 -3 -88 -3 0 806 0 805 393 0 394
0 34 -42 c19 -24 68 -89 111 -144 42 -56 84 -111 95 -122 10 -10 36 -45 58
-76 22 -31 44 -56 51 -56 15 0 24 225 24 585 0 360 -9 587 -24 582 -10 -3 -80
-96 -276 -368 l-70 -96 -142 -6 c-179 -9 -312 -9 -361 -1 l-37 7 2 541 3 541
80 9 c116 13 484 13 595 -1 133 -16 161 -30 427 -211 47 -32 42 -8 -11 57 -44
54 -143 141 -160 141 -5 0 -17 6 -25 13 -24 21 -146 57 -246 73 -94 16 -625
22 -682 8 -56 -13 -53 16 -53 -599 l0 -573 -22 -6 c-30 -8 -88 -8 -127 0 l-31
7 0 658 c0 618 1 658 18 663 9 3 145 8 302 12 429 10 654 -14 817 -87 117 -52
260 -226 361 -441 49 -103 52 -102 106 27 82 200 219 437 354 614 40 52 72 99
72 106 0 7 -17 16 -37 20 -38 7 -2940 4 -2961 -3z"/>
<path d="M13457 7403 c-53 -67 -207 -290 -207 -300 0 -3 -8 -17 -19 -31 -10
-15 -33 -54 -51 -87 -32 -56 -45 -83 -119 -234 -30 -62 -31 -105 -4 -116 19
-7 14 -14 48 70 16 39 32 75 35 80 4 6 31 55 60 110 29 55 63 114 76 132 13
17 24 34 24 38 0 6 104 159 184 272 64 89 70 101 55 119 -6 8 -15 14 -20 14
-4 0 -32 -30 -62 -67z"/>
<path d="M9835 7365 c-172 -116 -189 -129 -202 -155 -10 -20 -13 -340 -13
-1480 0 -859 4 -1468 9 -1487 5 -18 49 -76 96 -130 188 -211 221 -248 253
-286 17 -21 32 -43 32 -48 0 -5 -281 -9 -680 -9 -737 0 -698 3 -670 -51 10
-19 29 -19 760 -19 642 0 750 2 750 14 0 8 -46 66 -102 129 -57 63 -112 125
-123 138 -11 13 -63 73 -115 132 -52 60 -104 119 -114 132 -18 23 -19 64 -18
1477 l1 1453 28 23 c15 13 85 64 156 114 70 50 127 95 127 99 0 10 -34 29 -52
29 -7 -1 -62 -34 -123 -75z"/>
<path d="M12647 6483 c-4 -3 -7 -284 -7 -623 0 -466 3 -619 12 -628 17 -17 45
-15 52 4 3 9 6 287 6 619 0 535 -2 605 -16 619 -16 17 -36 21 -47 9z"/>
<path d="M13260 4740 c0 -29 84 -200 147 -297 71 -110 205 -277 314 -389 49
-50 89 -96 89 -103 0 -10 -52 -113 -81 -158 l-14 -23 -1562 0 c-859 0 -1564
-4 -1567 -8 -3 -4 1 -19 7 -33 l13 -24 1573 0 1574 0 16 27 c90 153 121 210
121 221 0 7 -31 44 -68 82 -136 143 -260 289 -307 364 -6 9 -35 54 -66 101
-30 47 -67 112 -83 145 -15 33 -31 67 -35 75 -4 8 -22 20 -39 27 -30 12 -32
12 -32 -7z"/>
<path d="M12530 3460 c-41 -41 -13 -100 48 -100 62 0 82 83 27 108 -36 17 -52
15 -75 -8z"/>
<path d="M7640 3365 c0 -58 -3 -105 -6 -105 -3 0 -19 11 -36 25 -36 30 -111
34 -164 9 -108 -51 -127 -287 -30 -372 58 -51 156 -52 201 -2 24 27 35 25 35
-5 0 -23 3 -25 50 -25 l50 0 0 290 0 290 -50 0 -50 0 0 -105z m-26 -178 c24
-33 29 -130 7 -169 -28 -54 -98 -63 -142 -19 -26 26 -29 36 -29 91 0 77 19
117 63 128 43 12 77 1 101 -31z"/>
<path d="M9780 3218 c0 -182 4 -260 13 -278 22 -44 109 -74 145 -51 21 13 5
81 -19 81 -34 0 -39 33 -39 269 l0 231 -50 0 -50 0 0 -252z"/>
<path d="M6180 3165 l0 -275 50 0 50 0 2 188 3 187 65 -187 65 -188 46 0 45 0
58 168 c32 92 62 174 67 182 5 8 9 -64 9 -167 l0 -183 55 0 55 0 0 275 0 276
-72 -3 -72 -3 -65 -191 c-36 -105 -70 -192 -75 -193 -5 -1 -39 85 -76 191
l-67 193 -71 3 -72 3 0 -276z"/>
<path d="M9320 3165 l0 -275 185 0 185 0 0 45 0 45 -130 0 -130 0 0 75 0 75
110 0 110 0 0 45 0 45 -110 0 -110 0 0 65 0 65 125 0 125 0 0 45 0 45 -180 0
-180 0 0 -275z"/>
<path d="M10948 3393 c-25 -4 -28 -8 -28 -44 0 -37 -2 -39 -30 -39 -29 0 -30
-2 -30 -45 0 -43 1 -45 30 -45 l30 0 0 -124 c0 -111 2 -126 23 -157 28 -42 82
-64 139 -55 67 10 74 17 60 65 -12 38 -14 40 -38 31 -35 -14 -41 -13 -64 10
-17 17 -20 33 -20 125 l0 105 60 0 60 0 0 45 0 45 -60 0 -60 0 0 45 c0 49 0
49 -72 38z"/>
<path d="M6963 3291 c-61 -28 -94 -84 -101 -170 -10 -149 61 -234 198 -235
129 -2 203 76 203 213 0 133 -74 211 -200 211 -35 0 -74 -8 -100 -19z m167
-96 c31 -33 38 -127 13 -175 -32 -63 -119 -66 -158 -6 -25 37 -23 141 3 175
32 44 104 47 142 6z"/>
<path d="M7943 3291 c-61 -28 -94 -84 -101 -170 -7 -105 27 -179 102 -218 49
-27 162 -23 209 6 35 21 57 48 57 68 0 5 -14 17 -31 27 -30 18 -31 18 -53 -3
-46 -43 -141 -36 -164 12 -28 59 -33 56 116 59 l137 3 3 53 c4 71 -24 131 -77
160 -50 28 -139 29 -198 3z m156 -87 c12 -15 21 -35 21 -45 0 -17 -9 -19 -85
-19 -79 0 -85 1 -85 20 0 64 109 95 149 44z"/>
<path d="M8317 3303 c-4 -3 -7 -98 -7 -210 l0 -203 54 0 54 0 4 141 c3 134 4
142 27 160 15 12 39 19 66 19 43 0 43 1 50 40 8 50 2 60 -38 60 -34 0 -97 -33
-97 -50 0 -5 -4 -10 -10 -10 -5 0 -10 14 -10 30 0 29 -2 30 -43 30 -24 0 -47
-3 -50 -7z"/>
<path d="M8640 3100 l0 -210 50 0 50 0 0 108 c1 174 21 223 95 225 28 1 42 -5
56 -22 17 -20 19 -41 19 -167 l0 -144 50 0 50 0 0 160 c0 181 -9 219 -59 244
-35 18 -112 21 -144 5 -12 -6 -32 -23 -44 -37 l-23 -27 0 38 0 37 -50 0 -50 0
0 -210z"/>
<path d="M10102 3289 c-109 -54 -137 -246 -51 -344 31 -35 104 -65 158 -65 51
0 106 23 140 57 l35 35 -29 24 c-37 30 -40 30 -77 -1 -43 -36 -100 -34 -139 4
-16 16 -29 39 -29 50 0 19 7 21 133 23 l132 3 0 70 c0 81 -21 122 -79 149 -49
23 -141 21 -194 -5z m158 -79 c11 -11 20 -31 20 -45 0 -25 -1 -25 -85 -25 -53
0 -85 4 -85 10 0 18 29 68 42 73 32 13 89 6 108 -13z"/>
<path d="M10565 3296 c-123 -54 -154 -257 -55 -356 86 -86 244 -72 302 26 l19
32 -36 21 c-42 25 -55 26 -55 7 0 -23 -50 -56 -86 -56 -20 0 -43 9 -60 24 -24
20 -28 33 -32 88 -5 81 14 124 61 136 40 11 87 -2 108 -29 l16 -21 36 23 c20
13 37 27 37 30 0 16 -47 63 -76 75 -42 18 -139 17 -179 0z"/>
<path d="M11230 3101 l0 -211 50 0 50 0 0 119 c0 171 15 201 99 201 39 0 40 1
49 43 9 47 3 57 -41 57 -35 0 -82 -24 -92 -47 -7 -15 -9 -13 -14 12 -6 28 -10
30 -54 33 l-47 3 0 -210z"/>
<path d="M11632 3289 c-80 -40 -121 -159 -92 -266 29 -101 138 -161 246 -134
104 26 149 91 148 211 0 82 -13 117 -61 162 -15 15 -41 32 -56 37 -48 18 -137
13 -185 -10z m165 -79 c1 0 9 -13 18 -30 32 -61 12 -175 -34 -200 -33 -17 -78
-11 -107 14 -24 20 -28 33 -32 88 -5 81 14 124 61 136 17 5 45 5 62 0 16 -4
31 -8 32 -8z"/>
<path d="M12040 3100 l0 -210 50 0 50 0 0 130 c0 152 10 182 65 200 27 9 40 9
62 -2 l28 -13 3 -158 3 -157 54 0 55 0 0 148 c0 170 -9 211 -52 247 -29 24
-38 27 -95 23 -51 -3 -68 -9 -91 -31 -36 -34 -42 -34 -42 3 0 29 -2 30 -45 30
l-45 0 0 -210z"/>
<path d="M12527 3304 c-4 -4 -7 -99 -7 -211 l0 -203 55 0 55 0 -2 208 -3 207
-45 3 c-25 2 -49 0 -53 -4z"/>
<path d="M12829 3290 c-54 -28 -86 -72 -99 -135 -14 -69 -6 -127 26 -183 69
-119 268 -119 330 -1 15 29 11 35 -34 58 -20 11 -26 8 -56 -24 -52 -55 -125
-44 -153 22 -34 82 0 184 65 196 33 6 86 -15 100 -39 9 -17 12 -16 46 7 20 13
36 29 36 35 0 16 -51 61 -83 73 -45 17 -137 13 -178 -9z"/>
<path d="M13223 3295 c-76 -33 -94 -133 -34 -187 17 -15 57 -34 88 -43 72 -20
87 -28 91 -49 12 -60 -119 -62 -160 -2 -11 16 -72 -48 -65 -68 12 -31 88 -60
162 -60 111 -1 165 43 165 134 0 61 -38 96 -126 119 -85 22 -94 27 -94 50 0
42 61 55 124 25 34 -17 35 -17 59 12 20 23 23 32 14 43 -33 40 -159 54 -224
26z"/>
</g>
</svg>
